<svg fill="none" height="16" viewBox="0 0 16 16" width="16" xmlns="http://www.w3.org/2000/svg"><g fill="#494949"><path d="m2.97513 13.7912c.03887.6827.64409 1.2092 1.36592 1.2092h7.33735c.7218 0 1.3072-.5265 1.3461-1.2092l.7028-8.97284h-11.45484z"/><path d="m14.5481 1.73583h-3.6126l-.1235-.50013c-.0409-.13222-.1845-.2357-.3697-.2357h-4.84433c-.18443 0-.32878.1029-.36967.2357l-.10265.50013h-3.67419c-.24618 0-.45146.14717-.45146.32365v1.16238c0 .17648.20528.32365.45146.32365h13.09734c.2462 0 .4515-.14717.4515-.32365v-1.16238c0-.17648-.2053-.32365-.4523-.32365z"/></g></svg>