<svg viewBox="0 0 16 16" height="16" width="16" xmlns="http://www.w3.org/2000/svg">
  <circle cx="8" cy="8" r="8" style="fill: #494949"></circle>
  <path d="M 6.675 10.21 C 6.627 10.084 6.589 9.944 6.56 9.791 C 6.537 9.633 6.524 9.483 6.524 9.343 C 6.524 9.122 6.546 8.92 6.589 8.737 C 6.632 8.554 6.696 8.383 6.783 8.225 C 6.869 8.061 6.976 7.907 7.105 7.763 C 7.234 7.613 7.385 7.467 7.558 7.323 C 7.738 7.168 7.897 7.027 8.03 6.897 C 8.169 6.762 8.286 6.63 8.382 6.5 C 8.477 6.365 8.549 6.228 8.597 6.089 C 8.645 5.944 8.669 5.786 8.669 5.613 C 8.669 5.463 8.642 5.326 8.59 5.201 C 8.537 5.071 8.461 4.96 8.36 4.869 C 8.265 4.777 8.145 4.705 8.002 4.652 C 7.863 4.599 7.708 4.573 7.536 4.573 C 7.163 4.573 6.776 4.652 6.374 4.811 C 5.972 4.965 5.592 5.201 5.234 5.518 L 5.234 3.346 C 5.602 3.124 6.004 2.959 6.438 2.848 C 6.874 2.737 7.323 2.682 7.787 2.682 C 8.231 2.682 8.645 2.732 9.028 2.834 C 9.41 2.929 9.742 3.084 10.024 3.295 C 10.311 3.507 10.533 3.779 10.691 4.111 C 10.853 4.438 10.934 4.833 10.934 5.294 C 10.934 5.588 10.901 5.855 10.835 6.096 C 10.768 6.331 10.669 6.555 10.54 6.767 C 10.411 6.979 10.251 7.183 10.06 7.381 C 9.869 7.573 9.649 7.773 9.4 7.979 C 9.233 8.119 9.084 8.249 8.955 8.369 C 8.831 8.49 8.726 8.61 8.64 8.73 C 8.559 8.846 8.497 8.971 8.453 9.105 C 8.411 9.235 8.389 9.384 8.389 9.553 C 8.389 9.669 8.403 9.786 8.432 9.906 C 8.466 10.027 8.508 10.128 8.561 10.21 L 6.675 10.21 Z M 7.722 13.371 C 7.34 13.371 7.021 13.255 6.769 13.024 C 6.515 12.784 6.388 12.5 6.388 12.173 C 6.388 11.836 6.515 11.554 6.769 11.329 C 7.021 11.103 7.34 10.989 7.722 10.989 C 8.1 10.989 8.413 11.103 8.662 11.329 C 8.91 11.55 9.035 11.831 9.035 12.173 C 9.035 12.519 8.913 12.805 8.669 13.032 C 8.42 13.258 8.105 13.371 7.722 13.371 Z" style="fill: #FFF;"></path>
</svg>