<svg width="16" height="16" viewBox="0 0 16 16" fill="none" xmlns="http://www.w3.org/2000/svg">
<path fill-rule="evenodd" clip-rule="evenodd" d="M7.99918 14.2842C4.53302 14.2842 1.71411 11.4653 1.71411 7.99917C1.71411 4.53503 4.53302 1.71411 7.99918 1.71411C11.4653 1.71411 14.2842 4.53503 14.2842 7.99917C14.2842 11.4653 11.4653 14.2842 7.99918 14.2842ZM7.99899 0C3.5811 0 0 3.5811 0 7.99899C0 12.4169 3.5811 16 7.99899 16C12.4169 16 16 12.4169 16 7.99899C16 3.5811 12.4169 0 7.99899 0Z" fill="#383838"/>
<path fill-rule="evenodd" clip-rule="evenodd" d="M8.46265 7.7186V3.64551H7.02295V9.16032H11.703V7.7186H8.46265Z" fill="#383838"/>
</svg>
